<?xml version="1.0" encoding="utf-8"?>
<svg version="1.1" xmlns:xlink="http://www.w3.org/1999/xlink" width="30px" height="30px" xmlns="http://www.w3.org/2000/svg">
  <g transform="matrix(1 0 0 1 -126 -114 )">
    <path d="M 141 114  C 149.4 114  156 120.6  156 129  C 156 137.4  149.4 144  141 144  C 132.6 144  126 137.4  126 129  C 126 120.6  132.6 114  141 114  Z " fill-rule="nonzero" fill="#d7d7d7" stroke="none" fill-opacity="0.984313725490196" />
    <path d="M 141 114.5  C 149.12 114.5  155.5 120.88  155.5 129  C 155.5 137.12  149.12 143.5  141 143.5  C 132.88 143.5  126.5 137.12  126.5 129  C 126.5 120.88  132.88 114.5  141 114.5  Z " stroke-width="1" stroke="#797979" fill="none" />
  </g>
</svg>