<?xml version="1.0" encoding="utf-8"?>
<svg version="1.1" xmlns:xlink="http://www.w3.org/1999/xlink" width="12px" height="12px" viewBox="201 318  12 12" xmlns="http://www.w3.org/2000/svg">
  <path d="M 207 318  C 210.36 318  213 320.64  213 324  C 213 327.36  210.36 330  207 330  C 203.64 330  201 327.36  201 324  C 201 320.64  203.64 318  207 318  Z " fill-rule="nonzero" fill="#ffffff" stroke="none" />
  <path d="M 207 318.5  C 210.08 318.5  212.5 320.92  212.5 324  C 212.5 327.08  210.08 329.5  207 329.5  C 203.92 329.5  201.5 327.08  201.5 324  C 201.5 320.92  203.92 318.5  207 318.5  Z " stroke-width="1" stroke="#797979" fill="none" />
  <path d="M 207 327  C 205.32 327  204 325.68  204 324  C 204 322.32  205.32 321  207 321  C 208.68 321  210 322.32  210 324  C 210 325.68  208.68 327  207 327  " fill-rule="nonzero" fill="#797979" stroke="none" />
</svg>