<?xml version="1.0" encoding="utf-8"?>
<svg version="1.1" xmlns:xlink="http://www.w3.org/1999/xlink" width="12px" height="12px" viewBox="310 318  12 12" xmlns="http://www.w3.org/2000/svg">
  <path d="M 316 318  C 319.36 318  322 320.64  322 324  C 322 327.36  319.36 330  316 330  C 312.64 330  310 327.36  310 324  C 310 320.64  312.64 318  316 318  Z " fill-rule="nonzero" fill="#ffffff" stroke="none" />
  <path d="M 316 318.5  C 319.08 318.5  321.5 320.92  321.5 324  C 321.5 327.08  319.08 329.5  316 329.5  C 312.92 329.5  310.5 327.08  310.5 324  C 310.5 320.92  312.92 318.5  316 318.5  Z " stroke-width="1" stroke="#797979" fill="none" />
  <path d="M 316 327  C 314.32 327  313 325.68  313 324  C 313 322.32  314.32 321  316 321  C 317.68 321  319 322.32  319 324  C 319 325.68  317.68 327  316 327  " fill-rule="nonzero" fill="#797979" stroke="none" />
</svg>